<?xml version="1.0" encoding="utf-8" standalone="no"?>
<!DOCTYPE svg PUBLIC "-//W3C//DTD SVG 1.1//EN"
  "http://www.w3.org/Graphics/SVG/1.1/DTD/svg11.dtd">
<svg xmlns:xlink="http://www.w3.org/1999/xlink" width="510.321477pt" height="396.2385pt" viewBox="0 0 510.321477 396.2385" xmlns="http://www.w3.org/2000/svg" version="1.1">
 <metadata>
  <rdf:RDF xmlns:dc="http://purl.org/dc/elements/1.1/" xmlns:cc="http://creativecommons.org/ns#" xmlns:rdf="http://www.w3.org/1999/02/22-rdf-syntax-ns#">
   <cc:Work>
    <dc:type rdf:resource="http://purl.org/dc/dcmitype/StillImage"/>
    <dc:format>image/svg+xml</dc:format>
    <dc:creator>
     <cc:Agent>
      <dc:title>ir.py analytics pipeline</dc:title>
     </cc:Agent>
    </dc:creator>
   </cc:Work>
  </rdf:RDF>
 </metadata>
 <defs>
  <style type="text/css">*{stroke-linejoin: round; stroke-linecap: butt}</style>
 </defs>
 <g id="figure_1">
  <g id="patch_1">
   <path d="M 0 396.2385
L 510.321477 396.2385
L 510.321477 0
L 0 0
z
" style="fill: #ffffff"/>
  </g>
  <g id="axes_1">
   <g id="patch_2">
    <path d="M 46.067625 358.33775
L 497.697514 358.33775
L 497.697514 7.2
L 46.067625 7.2
z
" style="fill: #ffffff"/>
   </g>
   <g id="line2d_1">
    <path d="M 68.308944 358.33775
L 68.308944 7.2
" clip-path="url(#pa6cc64c5ae)" style="fill: none; stroke: #71717a; stroke-width: 0.9; stroke-linecap: round"/>
   </g>
   <g id="matplotlib.axis_1">
    <g id="xtick_1">
     <g id="line2d_2">
      <path d="M 68.308944 358.33775
L 68.308944 7.2
" clip-path="url(#pa6cc64c5ae)" style="fill: none; stroke: #e4e4e7; stroke-width: 0.8; stroke-linecap: round"/>
     </g>
     <g id="text_1">
      <!-- 0 -->
      <g style="fill: #71717a" transform="translate(65.509444 373.323687) scale(0.088 -0.088)">
       <defs>
        <path id="DejaVuSans-13" d="M 2034 4250
Q 1547 4250 1301 3770
Q 1056 3291 1056 2328
Q 1056 1369 1301 889
Q 1547 409 2034 409
Q 2525 409 2770 889
Q 3016 1369 3016 2328
Q 3016 3291 2770 3770
Q 2525 4250 2034 4250
z
M 2034 4750
Q 2819 4750 3233 4129
Q 3647 3509 3647 2328
Q 3647 1150 3233 529
Q 2819 -91 2034 -91
Q 1250 -91 836 529
Q 422 1150 422 2328
Q 422 3509 836 4129
Q 1250 4750 2034 4750
z
" transform="scale(0.015625)"/>
       </defs>
       <use xlink:href="#DejaVuSans-13"/>
      </g>
     </g>
    </g>
    <g id="xtick_2">
     <g id="line2d_3">
      <path d="M 152.148413 358.33775
L 152.148413 7.2
" clip-path="url(#pa6cc64c5ae)" style="fill: none; stroke: #e4e4e7; stroke-width: 0.8; stroke-linecap: round"/>
     </g>
     <g id="text_2">
      <!-- 50.0B -->
      <g style="fill: #71717a" transform="translate(139.332726 373.323687) scale(0.088 -0.088)">
       <defs>
        <path id="DejaVuSans-18" d="M 691 4666
L 3169 4666
L 3169 4134
L 1269 4134
L 1269 2991
Q 1406 3038 1543 3061
Q 1681 3084 1819 3084
Q 2600 3084 3056 2656
Q 3513 2228 3513 1497
Q 3513 744 3044 326
Q 2575 -91 1722 -91
Q 1428 -91 1123 -41
Q 819 9 494 109
L 494 744
Q 775 591 1075 516
Q 1375 441 1709 441
Q 2250 441 2565 725
Q 2881 1009 2881 1497
Q 2881 1984 2565 2268
Q 2250 2553 1709 2553
Q 1456 2553 1204 2497
Q 953 2441 691 2322
L 691 4666
z
" transform="scale(0.015625)"/>
        <path id="DejaVuSans-11" d="M 684 794
L 1344 794
L 1344 0
L 684 0
L 684 794
z
" transform="scale(0.015625)"/>
        <path id="DejaVuSans-25" d="M 1259 2228
L 1259 519
L 2272 519
Q 2781 519 3026 730
Q 3272 941 3272 1375
Q 3272 1813 3026 2020
Q 2781 2228 2272 2228
L 1259 2228
z
M 1259 4147
L 1259 2741
L 2194 2741
Q 2656 2741 2882 2914
Q 3109 3088 3109 3444
Q 3109 3797 2882 3972
Q 2656 4147 2194 4147
L 1259 4147
z
M 628 4666
L 2241 4666
Q 2963 4666 3353 4366
Q 3744 4066 3744 3513
Q 3744 3084 3544 2831
Q 3344 2578 2956 2516
Q 3422 2416 3680 2098
Q 3938 1781 3938 1306
Q 3938 681 3513 340
Q 3088 0 2303 0
L 628 0
L 628 4666
z
" transform="scale(0.015625)"/>
       </defs>
       <use xlink:href="#DejaVuSans-18"/>
       <use xlink:href="#DejaVuSans-13" transform="translate(63.625 0)"/>
       <use xlink:href="#DejaVuSans-11" transform="translate(127.25 0)"/>
       <use xlink:href="#DejaVuSans-13" transform="translate(159.03125 0)"/>
       <use xlink:href="#DejaVuSans-25" transform="translate(222.65625 0)"/>
      </g>
     </g>
    </g>
    <g id="xtick_3">
     <g id="line2d_4">
      <path d="M 235.987882 358.33775
L 235.987882 7.2
" clip-path="url(#pa6cc64c5ae)" style="fill: none; stroke: #e4e4e7; stroke-width: 0.8; stroke-linecap: round"/>
     </g>
     <g id="text_3">
      <!-- 100.0B -->
      <g style="fill: #71717a" transform="translate(220.372695 373.323687) scale(0.088 -0.088)">
       <defs>
        <path id="DejaVuSans-14" d="M 794 531
L 1825 531
L 1825 4091
L 703 3866
L 703 4441
L 1819 4666
L 2450 4666
L 2450 531
L 3481 531
L 3481 0
L 794 0
L 794 531
z
" transform="scale(0.015625)"/>
       </defs>
       <use xlink:href="#DejaVuSans-14"/>
       <use xlink:href="#DejaVuSans-13" transform="translate(63.625 0)"/>
       <use xlink:href="#DejaVuSans-13" transform="translate(127.25 0)"/>
       <use xlink:href="#DejaVuSans-11" transform="translate(190.875 0)"/>
       <use xlink:href="#DejaVuSans-13" transform="translate(222.65625 0)"/>
       <use xlink:href="#DejaVuSans-25" transform="translate(286.28125 0)"/>
      </g>
     </g>
    </g>
    <g id="xtick_4">
     <g id="line2d_5">
      <path d="M 319.827351 358.33775
L 319.827351 7.2
" clip-path="url(#pa6cc64c5ae)" style="fill: none; stroke: #e4e4e7; stroke-width: 0.8; stroke-linecap: round"/>
     </g>
     <g id="text_4">
      <!-- 150.0B -->
      <g style="fill: #71717a" transform="translate(304.212164 373.323687) scale(0.088 -0.088)">
       <use xlink:href="#DejaVuSans-14"/>
       <use xlink:href="#DejaVuSans-18" transform="translate(63.625 0)"/>
       <use xlink:href="#DejaVuSans-13" transform="translate(127.25 0)"/>
       <use xlink:href="#DejaVuSans-11" transform="translate(190.875 0)"/>
       <use xlink:href="#DejaVuSans-13" transform="translate(222.65625 0)"/>
       <use xlink:href="#DejaVuSans-25" transform="translate(286.28125 0)"/>
      </g>
     </g>
    </g>
    <g id="xtick_5">
     <g id="line2d_6">
      <path d="M 403.66682 358.33775
L 403.66682 7.2
" clip-path="url(#pa6cc64c5ae)" style="fill: none; stroke: #e4e4e7; stroke-width: 0.8; stroke-linecap: round"/>
     </g>
     <g id="text_5">
      <!-- 200.0B -->
      <g style="fill: #71717a" transform="translate(388.051633 373.323687) scale(0.088 -0.088)">
       <defs>
        <path id="DejaVuSans-15" d="M 1228 531
L 3431 531
L 3431 0
L 469 0
L 469 531
Q 828 903 1448 1529
Q 2069 2156 2228 2338
Q 2531 2678 2651 2914
Q 2772 3150 2772 3378
Q 2772 3750 2511 3984
Q 2250 4219 1831 4219
Q 1534 4219 1204 4116
Q 875 4013 500 3803
L 500 4441
Q 881 4594 1212 4672
Q 1544 4750 1819 4750
Q 2544 4750 2975 4387
Q 3406 4025 3406 3419
Q 3406 3131 3298 2873
Q 3191 2616 2906 2266
Q 2828 2175 2409 1742
Q 1991 1309 1228 531
z
" transform="scale(0.015625)"/>
       </defs>
       <use xlink:href="#DejaVuSans-15"/>
       <use xlink:href="#DejaVuSans-13" transform="translate(63.625 0)"/>
       <use xlink:href="#DejaVuSans-13" transform="translate(127.25 0)"/>
       <use xlink:href="#DejaVuSans-11" transform="translate(190.875 0)"/>
       <use xlink:href="#DejaVuSans-13" transform="translate(222.65625 0)"/>
       <use xlink:href="#DejaVuSans-25" transform="translate(286.28125 0)"/>
      </g>
     </g>
    </g>
    <g id="xtick_6">
     <g id="line2d_7">
      <path d="M 487.506289 358.33775
L 487.506289 7.2
" clip-path="url(#pa6cc64c5ae)" style="fill: none; stroke: #e4e4e7; stroke-width: 0.8; stroke-linecap: round"/>
     </g>
     <g id="text_6">
      <!-- 250.0B -->
      <g style="fill: #71717a" transform="translate(471.891102 373.323687) scale(0.088 -0.088)">
       <use xlink:href="#DejaVuSans-15"/>
       <use xlink:href="#DejaVuSans-18" transform="translate(63.625 0)"/>
       <use xlink:href="#DejaVuSans-13" transform="translate(127.25 0)"/>
       <use xlink:href="#DejaVuSans-11" transform="translate(190.875 0)"/>
       <use xlink:href="#DejaVuSans-13" transform="translate(222.65625 0)"/>
       <use xlink:href="#DejaVuSans-25" transform="translate(286.28125 0)"/>
      </g>
     </g>
    </g>
    <g id="text_7">
     <!-- Free cash flow (JPY million) -->
     <g style="fill: #52525b" transform="translate(207.71557 386.73225) scale(0.096 -0.096)">
      <defs>
       <path id="DejaVuSans-29" d="M 628 4666
L 3309 4666
L 3309 4134
L 1259 4134
L 1259 2759
L 3109 2759
L 3109 2228
L 1259 2228
L 1259 0
L 628 0
L 628 4666
z
" transform="scale(0.015625)"/>
       <path id="DejaVuSans-55" d="M 2631 2963
Q 2534 3019 2420 3045
Q 2306 3072 2169 3072
Q 1681 3072 1420 2755
Q 1159 2438 1159 1844
L 1159 0
L 581 0
L 581 3500
L 1159 3500
L 1159 2956
Q 1341 3275 1631 3429
Q 1922 3584 2338 3584
Q 2397 3584 2469 3576
Q 2541 3569 2628 3553
L 2631 2963
z
" transform="scale(0.015625)"/>
       <path id="DejaVuSans-48" d="M 3597 1894
L 3597 1613
L 953 1613
Q 991 1019 1311 708
Q 1631 397 2203 397
Q 2534 397 2845 478
Q 3156 559 3463 722
L 3463 178
Q 3153 47 2828 -22
Q 2503 -91 2169 -91
Q 1331 -91 842 396
Q 353 884 353 1716
Q 353 2575 817 3079
Q 1281 3584 2069 3584
Q 2775 3584 3186 3129
Q 3597 2675 3597 1894
z
M 3022 2063
Q 3016 2534 2758 2815
Q 2500 3097 2075 3097
Q 1594 3097 1305 2825
Q 1016 2553 972 2059
L 3022 2063
z
" transform="scale(0.015625)"/>
       <path id="DejaVuSans-3" transform="scale(0.015625)"/>
       <path id="DejaVuSans-46" d="M 3122 3366
L 3122 2828
Q 2878 2963 2633 3030
Q 2388 3097 2138 3097
Q 1578 3097 1268 2742
Q 959 2388 959 1747
Q 959 1106 1268 751
Q 1578 397 2138 397
Q 2388 397 2633 464
Q 2878 531 3122 666
L 3122 134
Q 2881 22 2623 -34
Q 2366 -91 2075 -91
Q 1284 -91 818 406
Q 353 903 353 1747
Q 353 2603 823 3093
Q 1294 3584 2113 3584
Q 2378 3584 2631 3529
Q 2884 3475 3122 3366
z
" transform="scale(0.015625)"/>
       <path id="DejaVuSans-44" d="M 2194 1759
Q 1497 1759 1228 1600
Q 959 1441 959 1056
Q 959 750 1161 570
Q 1363 391 1709 391
Q 2188 391 2477 730
Q 2766 1069 2766 1631
L 2766 1759
L 2194 1759
z
M 3341 1997
L 3341 0
L 2766 0
L 2766 531
Q 2569 213 2275 61
Q 1981 -91 1556 -91
Q 1019 -91 701 211
Q 384 513 384 1019
Q 384 1609 779 1909
Q 1175 2209 1959 2209
L 2766 2209
L 2766 2266
Q 2766 2663 2505 2880
Q 2244 3097 1772 3097
Q 1472 3097 1187 3025
Q 903 2953 641 2809
L 641 3341
Q 956 3463 1253 3523
Q 1550 3584 1831 3584
Q 2591 3584 2966 3190
Q 3341 2797 3341 1997
z
" transform="scale(0.015625)"/>
       <path id="DejaVuSans-56" d="M 2834 3397
L 2834 2853
Q 2591 2978 2328 3040
Q 2066 3103 1784 3103
Q 1356 3103 1142 2972
Q 928 2841 928 2578
Q 928 2378 1081 2264
Q 1234 2150 1697 2047
L 1894 2003
Q 2506 1872 2764 1633
Q 3022 1394 3022 966
Q 3022 478 2636 193
Q 2250 -91 1575 -91
Q 1294 -91 989 -36
Q 684 19 347 128
L 347 722
Q 666 556 975 473
Q 1284 391 1588 391
Q 1994 391 2212 530
Q 2431 669 2431 922
Q 2431 1156 2273 1281
Q 2116 1406 1581 1522
L 1381 1569
Q 847 1681 609 1914
Q 372 2147 372 2553
Q 372 3047 722 3315
Q 1072 3584 1716 3584
Q 2034 3584 2315 3537
Q 2597 3491 2834 3397
z
" transform="scale(0.015625)"/>
       <path id="DejaVuSans-4b" d="M 3513 2113
L 3513 0
L 2938 0
L 2938 2094
Q 2938 2591 2744 2837
Q 2550 3084 2163 3084
Q 1697 3084 1428 2787
Q 1159 2491 1159 1978
L 1159 0
L 581 0
L 581 4863
L 1159 4863
L 1159 2956
Q 1366 3272 1645 3428
Q 1925 3584 2291 3584
Q 2894 3584 3203 3211
Q 3513 2838 3513 2113
z
" transform="scale(0.015625)"/>
       <path id="DejaVuSans-13b0" d="M 1831 4863
L 3431 4863
L 3431 0
L 2853 0
L 2853 4384
L 1825 4384
Q 1516 4384 1395 4259
Q 1275 4134 1275 3809
L 1275 3500
L 2222 3500
L 2222 3053
L 1275 3053
L 1275 0
L 697 0
L 697 3053
L 147 3053
L 147 3500
L 697 3500
L 697 3744
Q 697 4328 969 4595
Q 1241 4863 1831 4863
z
" transform="scale(0.015625)"/>
       <path id="DejaVuSans-52" d="M 1959 3097
Q 1497 3097 1228 2736
Q 959 2375 959 1747
Q 959 1119 1226 758
Q 1494 397 1959 397
Q 2419 397 2687 759
Q 2956 1122 2956 1747
Q 2956 2369 2687 2733
Q 2419 3097 1959 3097
z
M 1959 3584
Q 2709 3584 3137 3096
Q 3566 2609 3566 1747
Q 3566 888 3137 398
Q 2709 -91 1959 -91
Q 1206 -91 779 398
Q 353 888 353 1747
Q 353 2609 779 3096
Q 1206 3584 1959 3584
z
" transform="scale(0.015625)"/>
       <path id="DejaVuSans-5a" d="M 269 3500
L 844 3500
L 1563 769
L 2278 3500
L 2956 3500
L 3675 769
L 4391 3500
L 4966 3500
L 4050 0
L 3372 0
L 2619 2869
L 1863 0
L 1184 0
L 269 3500
z
" transform="scale(0.015625)"/>
       <path id="DejaVuSans-b" d="M 1984 4856
Q 1566 4138 1362 3434
Q 1159 2731 1159 2009
Q 1159 1288 1364 580
Q 1569 -128 1984 -844
L 1484 -844
Q 1016 -109 783 600
Q 550 1309 550 2009
Q 550 2706 781 3412
Q 1013 4119 1484 4856
L 1984 4856
z
" transform="scale(0.015625)"/>
       <path id="DejaVuSans-2d" d="M 628 4666
L 1259 4666
L 1259 325
Q 1259 -519 939 -900
Q 619 -1281 -91 -1281
L -331 -1281
L -331 -750
L -134 -750
Q 284 -750 456 -515
Q 628 -281 628 325
L 628 4666
z
" transform="scale(0.015625)"/>
       <path id="DejaVuSans-33" d="M 1259 4147
L 1259 2394
L 2053 2394
Q 2494 2394 2734 2622
Q 2975 2850 2975 3272
Q 2975 3691 2734 3919
Q 2494 4147 2053 4147
L 1259 4147
z
M 628 4666
L 2053 4666
Q 2838 4666 3239 4311
Q 3641 3956 3641 3272
Q 3641 2581 3239 2228
Q 2838 1875 2053 1875
L 1259 1875
L 1259 0
L 628 0
L 628 4666
z
" transform="scale(0.015625)"/>
       <path id="DejaVuSans-3c" d="M -13 4666
L 666 4666
L 1959 2747
L 3244 4666
L 3922 4666
L 2272 2222
L 2272 0
L 1638 0
L 1638 2222
L -13 4666
z
" transform="scale(0.015625)"/>
       <path id="DejaVuSans-50" d="M 3328 2828
Q 3544 3216 3844 3400
Q 4144 3584 4550 3584
Q 5097 3584 5394 3201
Q 5691 2819 5691 2113
L 5691 0
L 5113 0
L 5113 2094
Q 5113 2597 4934 2840
Q 4756 3084 4391 3084
Q 3944 3084 3684 2787
Q 3425 2491 3425 1978
L 3425 0
L 2847 0
L 2847 2094
Q 2847 2600 2669 2842
Q 2491 3084 2119 3084
Q 1678 3084 1418 2786
Q 1159 2488 1159 1978
L 1159 0
L 581 0
L 581 3500
L 1159 3500
L 1159 2956
Q 1356 3278 1631 3431
Q 1906 3584 2284 3584
Q 2666 3584 2933 3390
Q 3200 3197 3328 2828
z
" transform="scale(0.015625)"/>
       <path id="DejaVuSans-4c" d="M 603 3500
L 1178 3500
L 1178 0
L 603 0
L 603 3500
z
M 603 4863
L 1178 4863
L 1178 4134
L 603 4134
L 603 4863
z
" transform="scale(0.015625)"/>
       <path id="DejaVuSans-4f" d="M 603 4863
L 1178 4863
L 1178 0
L 603 0
L 603 4863
z
" transform="scale(0.015625)"/>
       <path id="DejaVuSans-51" d="M 3513 2113
L 3513 0
L 2938 0
L 2938 2094
Q 2938 2591 2744 2837
Q 2550 3084 2163 3084
Q 1697 3084 1428 2787
Q 1159 2491 1159 1978
L 1159 0
L 581 0
L 581 3500
L 1159 3500
L 1159 2956
Q 1366 3272 1645 3428
Q 1925 3584 2291 3584
Q 2894 3584 3203 3211
Q 3513 2838 3513 2113
z
" transform="scale(0.015625)"/>
       <path id="DejaVuSans-c" d="M 513 4856
L 1013 4856
Q 1481 4119 1714 3412
Q 1947 2706 1947 2009
Q 1947 1309 1714 600
Q 1481 -109 1013 -844
L 513 -844
Q 928 -128 1133 580
Q 1338 1288 1338 2009
Q 1338 2731 1133 3434
Q 928 4138 513 4856
z
" transform="scale(0.015625)"/>
      </defs>
      <use xlink:href="#DejaVuSans-29"/>
      <use xlink:href="#DejaVuSans-55" transform="translate(50.234375 0)"/>
      <use xlink:href="#DejaVuSans-48" transform="translate(89.140625 0)"/>
      <use xlink:href="#DejaVuSans-48" transform="translate(150.671875 0)"/>
      <use xlink:href="#DejaVuSans-3" transform="translate(212.203125 0)"/>
      <use xlink:href="#DejaVuSans-46" transform="translate(243.984375 0)"/>
      <use xlink:href="#DejaVuSans-44" transform="translate(298.96875 0)"/>
      <use xlink:href="#DejaVuSans-56" transform="translate(360.25 0)"/>
      <use xlink:href="#DejaVuSans-4b" transform="translate(412.34375 0)"/>
      <use xlink:href="#DejaVuSans-3" transform="translate(475.71875 0)"/>
      <use xlink:href="#DejaVuSans-13b0" transform="translate(507.5 0)"/>
      <use xlink:href="#DejaVuSans-52" transform="translate(570.484375 0)"/>
      <use xlink:href="#DejaVuSans-5a" transform="translate(631.671875 0)"/>
      <use xlink:href="#DejaVuSans-3" transform="translate(713.453125 0)"/>
      <use xlink:href="#DejaVuSans-b" transform="translate(745.234375 0)"/>
      <use xlink:href="#DejaVuSans-2d" transform="translate(784.25 0)"/>
      <use xlink:href="#DejaVuSans-33" transform="translate(813.75 0)"/>
      <use xlink:href="#DejaVuSans-3c" transform="translate(871.84375 0)"/>
      <use xlink:href="#DejaVuSans-3" transform="translate(932.921875 0)"/>
      <use xlink:href="#DejaVuSans-50" transform="translate(964.703125 0)"/>
      <use xlink:href="#DejaVuSans-4c" transform="translate(1062.109375 0)"/>
      <use xlink:href="#DejaVuSans-4f" transform="translate(1089.890625 0)"/>
      <use xlink:href="#DejaVuSans-4f" transform="translate(1117.671875 0)"/>
      <use xlink:href="#DejaVuSans-4c" transform="translate(1145.453125 0)"/>
      <use xlink:href="#DejaVuSans-52" transform="translate(1173.234375 0)"/>
      <use xlink:href="#DejaVuSans-51" transform="translate(1234.421875 0)"/>
      <use xlink:href="#DejaVuSans-c" transform="translate(1297.796875 0)"/>
     </g>
    </g>
   </g>
   <g id="matplotlib.axis_2">
    <g id="ytick_1">
     <g id="text_8">
      <!-- 6981.T -->
      <g style="fill: #71717a" transform="translate(7.2 19.783436) scale(0.088 -0.088)">
       <defs>
        <path id="DejaVuSans-19" d="M 2113 2584
Q 1688 2584 1439 2293
Q 1191 2003 1191 1497
Q 1191 994 1439 701
Q 1688 409 2113 409
Q 2538 409 2786 701
Q 3034 994 3034 1497
Q 3034 2003 2786 2293
Q 2538 2584 2113 2584
z
M 3366 4563
L 3366 3988
Q 3128 4100 2886 4159
Q 2644 4219 2406 4219
Q 1781 4219 1451 3797
Q 1122 3375 1075 2522
Q 1259 2794 1537 2939
Q 1816 3084 2150 3084
Q 2853 3084 3261 2657
Q 3669 2231 3669 1497
Q 3669 778 3244 343
Q 2819 -91 2113 -91
Q 1303 -91 875 529
Q 447 1150 447 2328
Q 447 3434 972 4092
Q 1497 4750 2381 4750
Q 2619 4750 2861 4703
Q 3103 4656 3366 4563
z
" transform="scale(0.015625)"/>
        <path id="DejaVuSans-1c" d="M 703 97
L 703 672
Q 941 559 1184 500
Q 1428 441 1663 441
Q 2288 441 2617 861
Q 2947 1281 2994 2138
Q 2813 1869 2534 1725
Q 2256 1581 1919 1581
Q 1219 1581 811 2004
Q 403 2428 403 3163
Q 403 3881 828 4315
Q 1253 4750 1959 4750
Q 2769 4750 3195 4129
Q 3622 3509 3622 2328
Q 3622 1225 3098 567
Q 2575 -91 1691 -91
Q 1453 -91 1209 -44
Q 966 3 703 97
z
M 1959 2075
Q 2384 2075 2632 2365
Q 2881 2656 2881 3163
Q 2881 3666 2632 3958
Q 2384 4250 1959 4250
Q 1534 4250 1286 3958
Q 1038 3666 1038 3163
Q 1038 2656 1286 2365
Q 1534 2075 1959 2075
z
" transform="scale(0.015625)"/>
        <path id="DejaVuSans-1b" d="M 2034 2216
Q 1584 2216 1326 1975
Q 1069 1734 1069 1313
Q 1069 891 1326 650
Q 1584 409 2034 409
Q 2484 409 2743 651
Q 3003 894 3003 1313
Q 3003 1734 2745 1975
Q 2488 2216 2034 2216
z
M 1403 2484
Q 997 2584 770 2862
Q 544 3141 544 3541
Q 544 4100 942 4425
Q 1341 4750 2034 4750
Q 2731 4750 3128 4425
Q 3525 4100 3525 3541
Q 3525 3141 3298 2862
Q 3072 2584 2669 2484
Q 3125 2378 3379 2068
Q 3634 1759 3634 1313
Q 3634 634 3220 271
Q 2806 -91 2034 -91
Q 1263 -91 848 271
Q 434 634 434 1313
Q 434 1759 690 2068
Q 947 2378 1403 2484
z
M 1172 3481
Q 1172 3119 1398 2916
Q 1625 2713 2034 2713
Q 2441 2713 2670 2916
Q 2900 3119 2900 3481
Q 2900 3844 2670 4047
Q 2441 4250 2034 4250
Q 1625 4250 1398 4047
Q 1172 3844 1172 3481
z
" transform="scale(0.015625)"/>
        <path id="DejaVuSans-37" d="M -19 4666
L 3928 4666
L 3928 4134
L 2272 4134
L 2272 0
L 1638 0
L 1638 4134
L -19 4134
L -19 4666
z
" transform="scale(0.015625)"/>
       </defs>
       <use xlink:href="#DejaVuSans-19"/>
       <use xlink:href="#DejaVuSans-1c" transform="translate(63.625 0)"/>
       <use xlink:href="#DejaVuSans-1b" transform="translate(127.25 0)"/>
       <use xlink:href="#DejaVuSans-14" transform="translate(190.875 0)"/>
       <use xlink:href="#DejaVuSans-11" transform="translate(254.5 0)"/>
       <use xlink:href="#DejaVuSans-37" transform="translate(286.28125 0)"/>
      </g>
     </g>
    </g>
    <g id="ytick_2">
     <g id="text_9">
      <!-- 6701.T -->
      <g style="fill: #71717a" transform="translate(7.2 38.26437) scale(0.088 -0.088)">
       <defs>
        <path id="DejaVuSans-1a" d="M 525 4666
L 3525 4666
L 3525 4397
L 1831 0
L 1172 0
L 2766 4134
L 525 4134
L 525 4666
z
" transform="scale(0.015625)"/>
       </defs>
       <use xlink:href="#DejaVuSans-19"/>
       <use xlink:href="#DejaVuSans-1a" transform="translate(63.625 0)"/>
       <use xlink:href="#DejaVuSans-13" transform="translate(127.25 0)"/>
       <use xlink:href="#DejaVuSans-14" transform="translate(190.875 0)"/>
       <use xlink:href="#DejaVuSans-11" transform="translate(254.5 0)"/>
       <use xlink:href="#DejaVuSans-37" transform="translate(286.28125 0)"/>
      </g>
     </g>
    </g>
    <g id="ytick_3">
     <g id="text_10">
      <!-- 6367.T -->
      <g style="fill: #71717a" transform="translate(7.2 56.745304) scale(0.088 -0.088)">
       <defs>
        <path id="DejaVuSans-16" d="M 2597 2516
Q 3050 2419 3304 2112
Q 3559 1806 3559 1356
Q 3559 666 3084 287
Q 2609 -91 1734 -91
Q 1441 -91 1130 -33
Q 819 25 488 141
L 488 750
Q 750 597 1062 519
Q 1375 441 1716 441
Q 2309 441 2620 675
Q 2931 909 2931 1356
Q 2931 1769 2642 2001
Q 2353 2234 1838 2234
L 1294 2234
L 1294 2753
L 1863 2753
Q 2328 2753 2575 2939
Q 2822 3125 2822 3475
Q 2822 3834 2567 4026
Q 2313 4219 1838 4219
Q 1578 4219 1281 4162
Q 984 4106 628 3988
L 628 4550
Q 988 4650 1302 4700
Q 1616 4750 1894 4750
Q 2613 4750 3031 4423
Q 3450 4097 3450 3541
Q 3450 3153 3228 2886
Q 3006 2619 2597 2516
z
" transform="scale(0.015625)"/>
       </defs>
       <use xlink:href="#DejaVuSans-19"/>
       <use xlink:href="#DejaVuSans-16" transform="translate(63.625 0)"/>
       <use xlink:href="#DejaVuSans-19" transform="translate(127.25 0)"/>
       <use xlink:href="#DejaVuSans-1a" transform="translate(190.875 0)"/>
       <use xlink:href="#DejaVuSans-11" transform="translate(254.5 0)"/>
       <use xlink:href="#DejaVuSans-37" transform="translate(286.28125 0)"/>
      </g>
     </g>
    </g>
    <g id="ytick_4">
     <g id="text_11">
      <!-- 3092.T -->
      <g style="fill: #71717a" transform="translate(7.2 75.226238) scale(0.088 -0.088)">
       <use xlink:href="#DejaVuSans-16"/>
       <use xlink:href="#DejaVuSans-13" transform="translate(63.625 0)"/>
       <use xlink:href="#DejaVuSans-1c" transform="translate(127.25 0)"/>
       <use xlink:href="#DejaVuSans-15" transform="translate(190.875 0)"/>
       <use xlink:href="#DejaVuSans-11" transform="translate(254.5 0)"/>
       <use xlink:href="#DejaVuSans-37" transform="translate(286.28125 0)"/>
      </g>
     </g>
    </g>
    <g id="ytick_5">
     <g id="text_12">
      <!-- 4751.T -->
      <g style="fill: #71717a" transform="translate(7.2 93.707173) scale(0.088 -0.088)">
       <defs>
        <path id="DejaVuSans-17" d="M 2419 4116
L 825 1625
L 2419 1625
L 2419 4116
z
M 2253 4666
L 3047 4666
L 3047 1625
L 3713 1625
L 3713 1100
L 3047 1100
L 3047 0
L 2419 0
L 2419 1100
L 313 1100
L 313 1709
L 2253 4666
z
" transform="scale(0.015625)"/>
       </defs>
       <use xlink:href="#DejaVuSans-17"/>
       <use xlink:href="#DejaVuSans-1a" transform="translate(63.625 0)"/>
       <use xlink:href="#DejaVuSans-18" transform="translate(127.25 0)"/>
       <use xlink:href="#DejaVuSans-14" transform="translate(190.875 0)"/>
       <use xlink:href="#DejaVuSans-11" transform="translate(254.5 0)"/>
       <use xlink:href="#DejaVuSans-37" transform="translate(286.28125 0)"/>
      </g>
     </g>
    </g>
    <g id="ytick_6">
     <g id="text_13">
      <!-- 3626.T -->
      <g style="fill: #71717a" transform="translate(7.2 112.188107) scale(0.088 -0.088)">
       <use xlink:href="#DejaVuSans-16"/>
       <use xlink:href="#DejaVuSans-19" transform="translate(63.625 0)"/>
       <use xlink:href="#DejaVuSans-15" transform="translate(127.25 0)"/>
       <use xlink:href="#DejaVuSans-19" transform="translate(190.875 0)"/>
       <use xlink:href="#DejaVuSans-11" transform="translate(254.5 0)"/>
       <use xlink:href="#DejaVuSans-37" transform="translate(286.28125 0)"/>
      </g>
     </g>
    </g>
    <g id="ytick_7">
     <g id="text_14">
      <!-- 7701.T -->
      <g style="fill: #71717a" transform="translate(7.2 130.669041) scale(0.088 -0.088)">
       <use xlink:href="#DejaVuSans-1a"/>
       <use xlink:href="#DejaVuSans-1a" transform="translate(63.625 0)"/>
       <use xlink:href="#DejaVuSans-13" transform="translate(127.25 0)"/>
       <use xlink:href="#DejaVuSans-14" transform="translate(190.875 0)"/>
       <use xlink:href="#DejaVuSans-11" transform="translate(254.5 0)"/>
       <use xlink:href="#DejaVuSans-37" transform="translate(286.28125 0)"/>
      </g>
     </g>
    </g>
    <g id="ytick_8">
     <g id="text_15">
      <!-- 2432.T -->
      <g style="fill: #71717a" transform="translate(7.2 149.149975) scale(0.088 -0.088)">
       <use xlink:href="#DejaVuSans-15"/>
       <use xlink:href="#DejaVuSans-17" transform="translate(63.625 0)"/>
       <use xlink:href="#DejaVuSans-16" transform="translate(127.25 0)"/>
       <use xlink:href="#DejaVuSans-15" transform="translate(190.875 0)"/>
       <use xlink:href="#DejaVuSans-11" transform="translate(254.5 0)"/>
       <use xlink:href="#DejaVuSans-37" transform="translate(286.28125 0)"/>
      </g>
     </g>
    </g>
    <g id="ytick_9">
     <g id="text_16">
      <!-- 2121.T -->
      <g style="fill: #71717a" transform="translate(7.2 167.63091) scale(0.088 -0.088)">
       <use xlink:href="#DejaVuSans-15"/>
       <use xlink:href="#DejaVuSans-14" transform="translate(63.625 0)"/>
       <use xlink:href="#DejaVuSans-15" transform="translate(127.25 0)"/>
       <use xlink:href="#DejaVuSans-14" transform="translate(190.875 0)"/>
       <use xlink:href="#DejaVuSans-11" transform="translate(254.5 0)"/>
       <use xlink:href="#DejaVuSans-37" transform="translate(286.28125 0)"/>
      </g>
     </g>
    </g>
    <g id="ytick_10">
     <g id="text_17">
      <!-- 6645.T -->
      <g style="fill: #71717a" transform="translate(7.2 186.111844) scale(0.088 -0.088)">
       <use xlink:href="#DejaVuSans-19"/>
       <use xlink:href="#DejaVuSans-19" transform="translate(63.625 0)"/>
       <use xlink:href="#DejaVuSans-17" transform="translate(127.25 0)"/>
       <use xlink:href="#DejaVuSans-18" transform="translate(190.875 0)"/>
       <use xlink:href="#DejaVuSans-11" transform="translate(254.5 0)"/>
       <use xlink:href="#DejaVuSans-37" transform="translate(286.28125 0)"/>
      </g>
     </g>
    </g>
    <g id="ytick_11">
     <g id="text_18">
      <!-- 4443.T -->
      <g style="fill: #71717a" transform="translate(7.2 204.592778) scale(0.088 -0.088)">
       <use xlink:href="#DejaVuSans-17"/>
       <use xlink:href="#DejaVuSans-17" transform="translate(63.625 0)"/>
       <use xlink:href="#DejaVuSans-17" transform="translate(127.25 0)"/>
       <use xlink:href="#DejaVuSans-16" transform="translate(190.875 0)"/>
       <use xlink:href="#DejaVuSans-11" transform="translate(254.5 0)"/>
       <use xlink:href="#DejaVuSans-37" transform="translate(286.28125 0)"/>
      </g>
     </g>
    </g>
    <g id="ytick_12">
     <g id="text_19">
      <!-- 3774.T -->
      <g style="fill: #71717a" transform="translate(7.2 223.073712) scale(0.088 -0.088)">
       <use xlink:href="#DejaVuSans-16"/>
       <use xlink:href="#DejaVuSans-1a" transform="translate(63.625 0)"/>
       <use xlink:href="#DejaVuSans-1a" transform="translate(127.25 0)"/>
       <use xlink:href="#DejaVuSans-17" transform="translate(190.875 0)"/>
       <use xlink:href="#DejaVuSans-11" transform="translate(254.5 0)"/>
       <use xlink:href="#DejaVuSans-37" transform="translate(286.28125 0)"/>
      </g>
     </g>
    </g>
    <g id="ytick_13">
     <g id="text_20">
      <!-- 4384.T -->
      <g style="fill: #71717a" transform="translate(7.2 241.554646) scale(0.088 -0.088)">
       <use xlink:href="#DejaVuSans-17"/>
       <use xlink:href="#DejaVuSans-16" transform="translate(63.625 0)"/>
       <use xlink:href="#DejaVuSans-1b" transform="translate(127.25 0)"/>
       <use xlink:href="#DejaVuSans-17" transform="translate(190.875 0)"/>
       <use xlink:href="#DejaVuSans-11" transform="translate(254.5 0)"/>
       <use xlink:href="#DejaVuSans-37" transform="translate(286.28125 0)"/>
      </g>
     </g>
    </g>
    <g id="ytick_14">
     <g id="text_21">
      <!-- 4828.T -->
      <g style="fill: #71717a" transform="translate(7.2 260.035581) scale(0.088 -0.088)">
       <use xlink:href="#DejaVuSans-17"/>
       <use xlink:href="#DejaVuSans-1b" transform="translate(63.625 0)"/>
       <use xlink:href="#DejaVuSans-15" transform="translate(127.25 0)"/>
       <use xlink:href="#DejaVuSans-1b" transform="translate(190.875 0)"/>
       <use xlink:href="#DejaVuSans-11" transform="translate(254.5 0)"/>
       <use xlink:href="#DejaVuSans-37" transform="translate(286.28125 0)"/>
      </g>
     </g>
    </g>
    <g id="ytick_15">
     <g id="text_22">
      <!-- 4165.T -->
      <g style="fill: #71717a" transform="translate(7.2 278.516515) scale(0.088 -0.088)">
       <use xlink:href="#DejaVuSans-17"/>
       <use xlink:href="#DejaVuSans-14" transform="translate(63.625 0)"/>
       <use xlink:href="#DejaVuSans-19" transform="translate(127.25 0)"/>
       <use xlink:href="#DejaVuSans-18" transform="translate(190.875 0)"/>
       <use xlink:href="#DejaVuSans-11" transform="translate(254.5 0)"/>
       <use xlink:href="#DejaVuSans-37" transform="translate(286.28125 0)"/>
      </g>
     </g>
    </g>
    <g id="ytick_16">
     <g id="text_23">
      <!-- 3655.T -->
      <g style="fill: #71717a" transform="translate(7.2 296.997449) scale(0.088 -0.088)">
       <use xlink:href="#DejaVuSans-16"/>
       <use xlink:href="#DejaVuSans-19" transform="translate(63.625 0)"/>
       <use xlink:href="#DejaVuSans-18" transform="translate(127.25 0)"/>
       <use xlink:href="#DejaVuSans-18" transform="translate(190.875 0)"/>
       <use xlink:href="#DejaVuSans-11" transform="translate(254.5 0)"/>
       <use xlink:href="#DejaVuSans-37" transform="translate(286.28125 0)"/>
      </g>
     </g>
    </g>
    <g id="ytick_17">
     <g id="text_24">
      <!-- 4418.T -->
      <g style="fill: #71717a" transform="translate(7.2 315.478383) scale(0.088 -0.088)">
       <use xlink:href="#DejaVuSans-17"/>
       <use xlink:href="#DejaVuSans-17" transform="translate(63.625 0)"/>
       <use xlink:href="#DejaVuSans-14" transform="translate(127.25 0)"/>
       <use xlink:href="#DejaVuSans-1b" transform="translate(190.875 0)"/>
       <use xlink:href="#DejaVuSans-11" transform="translate(254.5 0)"/>
       <use xlink:href="#DejaVuSans-37" transform="translate(286.28125 0)"/>
      </g>
     </g>
    </g>
    <g id="ytick_18">
     <g id="text_25">
      <!-- 4478.T -->
      <g style="fill: #71717a" transform="translate(7.2 333.959317) scale(0.088 -0.088)">
       <use xlink:href="#DejaVuSans-17"/>
       <use xlink:href="#DejaVuSans-17" transform="translate(63.625 0)"/>
       <use xlink:href="#DejaVuSans-1a" transform="translate(127.25 0)"/>
       <use xlink:href="#DejaVuSans-1b" transform="translate(190.875 0)"/>
       <use xlink:href="#DejaVuSans-11" transform="translate(254.5 0)"/>
       <use xlink:href="#DejaVuSans-37" transform="translate(286.28125 0)"/>
      </g>
     </g>
    </g>
    <g id="ytick_19">
     <g id="text_26">
      <!-- 3993.T -->
      <g style="fill: #71717a" transform="translate(7.2 352.440252) scale(0.088 -0.088)">
       <use xlink:href="#DejaVuSans-16"/>
       <use xlink:href="#DejaVuSans-1c" transform="translate(63.625 0)"/>
       <use xlink:href="#DejaVuSans-1c" transform="translate(127.25 0)"/>
       <use xlink:href="#DejaVuSans-16" transform="translate(190.875 0)"/>
       <use xlink:href="#DejaVuSans-11" transform="translate(254.5 0)"/>
       <use xlink:href="#DejaVuSans-37" transform="translate(286.28125 0)"/>
      </g>
     </g>
    </g>
   </g>
   <g id="patch_3">
    <path d="M 68.308944 9.048093
L 477.168883 9.048093
L 477.168883 23.832841
L 68.308944 23.832841
z
" clip-path="url(#pa6cc64c5ae)" style="fill: #157069; stroke: #ffffff; stroke-width: 0.8; stroke-linejoin: miter"/>
   </g>
   <g id="patch_4">
    <path d="M 68.308944 27.529028
L 425.874219 27.529028
L 425.874219 42.313775
L 68.308944 42.313775
z
" clip-path="url(#pa6cc64c5ae)" style="fill: #157069; stroke: #ffffff; stroke-width: 0.8; stroke-linejoin: miter"/>
   </g>
   <g id="patch_5">
    <path d="M 68.308944 46.009962
L 365.174443 46.009962
L 365.174443 60.794709
L 68.308944 60.794709
z
" clip-path="url(#pa6cc64c5ae)" style="fill: #157069; stroke: #ffffff; stroke-width: 0.8; stroke-linejoin: miter"/>
   </g>
   <g id="patch_6">
    <path d="M 68.308944 64.490896
L 158.56884 64.490896
L 158.56884 79.275643
L 68.308944 79.275643
z
" clip-path="url(#pa6cc64c5ae)" style="fill: #157069; stroke: #ffffff; stroke-width: 0.8; stroke-linejoin: miter"/>
   </g>
   <g id="patch_7">
    <path d="M 68.308944 82.97183
L 149.956849 82.97183
L 149.956849 97.756578
L 68.308944 97.756578
z
" clip-path="url(#pa6cc64c5ae)" style="fill: #157069; stroke: #ffffff; stroke-width: 0.8; stroke-linejoin: miter"/>
   </g>
   <g id="patch_8">
    <path d="M 68.308944 101.452764
L 145.452993 101.452764
L 145.452993 116.237512
L 68.308944 116.237512
z
" clip-path="url(#pa6cc64c5ae)" style="fill: #157069; stroke: #ffffff; stroke-width: 0.8; stroke-linejoin: miter"/>
   </g>
   <g id="patch_9">
    <path d="M 68.308944 119.933699
L 116.649105 119.933699
L 116.649105 134.718446
L 68.308944 134.718446
z
" clip-path="url(#pa6cc64c5ae)" style="fill: #157069; stroke: #ffffff; stroke-width: 0.8; stroke-linejoin: miter"/>
   </g>
   <g id="patch_10">
    <path d="M 68.308944 138.414633
L 113.11108 138.414633
L 113.11108 153.19938
L 68.308944 153.19938
z
" clip-path="url(#pa6cc64c5ae)" style="fill: #157069; stroke: #ffffff; stroke-width: 0.8; stroke-linejoin: miter"/>
   </g>
   <g id="patch_11">
    <path d="M 68.308944 156.895567
L 90.083731 156.895567
L 90.083731 171.680314
L 68.308944 171.680314
z
" clip-path="url(#pa6cc64c5ae)" style="fill: #157069; stroke: #ffffff; stroke-width: 0.8; stroke-linejoin: miter"/>
   </g>
   <g id="patch_12">
    <path d="M 68.308944 175.376501
L 81.547196 175.376501
L 81.547196 190.161249
L 68.308944 190.161249
z
" clip-path="url(#pa6cc64c5ae)" style="fill: #157069; stroke: #ffffff; stroke-width: 0.8; stroke-linejoin: miter"/>
   </g>
   <g id="patch_13">
    <path d="M 68.308944 193.857436
L 80.215825 193.857436
L 80.215825 208.642183
L 68.308944 208.642183
z
" clip-path="url(#pa6cc64c5ae)" style="fill: #157069; stroke: #ffffff; stroke-width: 0.8; stroke-linejoin: miter"/>
   </g>
   <g id="patch_14">
    <path d="M 68.308944 212.33837
L 79.675899 212.33837
L 79.675899 227.123117
L 68.308944 227.123117
z
" clip-path="url(#pa6cc64c5ae)" style="fill: #157069; stroke: #ffffff; stroke-width: 0.8; stroke-linejoin: miter"/>
   </g>
   <g id="patch_15">
    <path d="M 68.308944 230.819304
L 73.017369 230.819304
L 73.017369 245.604051
L 68.308944 245.604051
z
" clip-path="url(#pa6cc64c5ae)" style="fill: #157069; stroke: #ffffff; stroke-width: 0.8; stroke-linejoin: miter"/>
   </g>
   <g id="patch_16">
    <path d="M 68.308944 249.300238
L 71.741099 249.300238
L 71.741099 264.084986
L 68.308944 264.084986
z
" clip-path="url(#pa6cc64c5ae)" style="fill: #157069; stroke: #ffffff; stroke-width: 0.8; stroke-linejoin: miter"/>
   </g>
   <g id="patch_17">
    <path d="M 68.308944 267.781172
L 69.971989 267.781172
L 69.971989 282.56592
L 68.308944 282.56592
z
" clip-path="url(#pa6cc64c5ae)" style="fill: #157069; stroke: #ffffff; stroke-width: 0.8; stroke-linejoin: miter"/>
   </g>
   <g id="patch_18">
    <path d="M 68.308944 286.262107
L 69.836642 286.262107
L 69.836642 301.046854
L 68.308944 301.046854
z
" clip-path="url(#pa6cc64c5ae)" style="fill: #157069; stroke: #ffffff; stroke-width: 0.8; stroke-linejoin: miter"/>
   </g>
   <g id="patch_19">
    <path d="M 68.308944 304.743041
L 69.615233 304.743041
L 69.615233 319.527788
L 68.308944 319.527788
z
" clip-path="url(#pa6cc64c5ae)" style="fill: #157069; stroke: #ffffff; stroke-width: 0.8; stroke-linejoin: miter"/>
   </g>
   <g id="patch_20">
    <path d="M 68.308944 323.223975
L 66.734035 323.223975
L 66.734035 338.008722
L 68.308944 338.008722
z
" clip-path="url(#pa6cc64c5ae)" style="fill: #157069; stroke: #ffffff; stroke-width: 0.8; stroke-linejoin: miter"/>
   </g>
   <g id="patch_21">
    <path d="M 68.308944 341.704909
L 66.596256 341.704909
L 66.596256 356.489657
L 68.308944 356.489657
z
" clip-path="url(#pa6cc64c5ae)" style="fill: #157069; stroke: #ffffff; stroke-width: 0.8; stroke-linejoin: miter"/>
   </g>
   <g id="line2d_8">
    <path clip-path="url(#pa6cc64c5ae)" style="fill: none; stroke: #424242; stroke-width: 1.8; stroke-linecap: round"/>
   </g>
   <g id="line2d_9">
    <path clip-path="url(#pa6cc64c5ae)" style="fill: none; stroke: #424242; stroke-width: 1.8; stroke-linecap: round"/>
   </g>
   <g id="line2d_10">
    <path clip-path="url(#pa6cc64c5ae)" style="fill: none; stroke: #424242; stroke-width: 1.8; stroke-linecap: round"/>
   </g>
   <g id="line2d_11">
    <path clip-path="url(#pa6cc64c5ae)" style="fill: none; stroke: #424242; stroke-width: 1.8; stroke-linecap: round"/>
   </g>
   <g id="line2d_12">
    <path clip-path="url(#pa6cc64c5ae)" style="fill: none; stroke: #424242; stroke-width: 1.8; stroke-linecap: round"/>
   </g>
   <g id="line2d_13">
    <path clip-path="url(#pa6cc64c5ae)" style="fill: none; stroke: #424242; stroke-width: 1.8; stroke-linecap: round"/>
   </g>
   <g id="line2d_14">
    <path clip-path="url(#pa6cc64c5ae)" style="fill: none; stroke: #424242; stroke-width: 1.8; stroke-linecap: round"/>
   </g>
   <g id="line2d_15">
    <path clip-path="url(#pa6cc64c5ae)" style="fill: none; stroke: #424242; stroke-width: 1.8; stroke-linecap: round"/>
   </g>
   <g id="line2d_16">
    <path clip-path="url(#pa6cc64c5ae)" style="fill: none; stroke: #424242; stroke-width: 1.8; stroke-linecap: round"/>
   </g>
   <g id="line2d_17">
    <path clip-path="url(#pa6cc64c5ae)" style="fill: none; stroke: #424242; stroke-width: 1.8; stroke-linecap: round"/>
   </g>
   <g id="line2d_18">
    <path clip-path="url(#pa6cc64c5ae)" style="fill: none; stroke: #424242; stroke-width: 1.8; stroke-linecap: round"/>
   </g>
   <g id="line2d_19">
    <path clip-path="url(#pa6cc64c5ae)" style="fill: none; stroke: #424242; stroke-width: 1.8; stroke-linecap: round"/>
   </g>
   <g id="line2d_20">
    <path clip-path="url(#pa6cc64c5ae)" style="fill: none; stroke: #424242; stroke-width: 1.8; stroke-linecap: round"/>
   </g>
   <g id="line2d_21">
    <path clip-path="url(#pa6cc64c5ae)" style="fill: none; stroke: #424242; stroke-width: 1.8; stroke-linecap: round"/>
   </g>
   <g id="line2d_22">
    <path clip-path="url(#pa6cc64c5ae)" style="fill: none; stroke: #424242; stroke-width: 1.8; stroke-linecap: round"/>
   </g>
   <g id="line2d_23">
    <path clip-path="url(#pa6cc64c5ae)" style="fill: none; stroke: #424242; stroke-width: 1.8; stroke-linecap: round"/>
   </g>
   <g id="line2d_24">
    <path clip-path="url(#pa6cc64c5ae)" style="fill: none; stroke: #424242; stroke-width: 1.8; stroke-linecap: round"/>
   </g>
   <g id="line2d_25">
    <path clip-path="url(#pa6cc64c5ae)" style="fill: none; stroke: #424242; stroke-width: 1.8; stroke-linecap: round"/>
   </g>
   <g id="line2d_26">
    <path clip-path="url(#pa6cc64c5ae)" style="fill: none; stroke: #424242; stroke-width: 1.8; stroke-linecap: round"/>
   </g>
   <g id="patch_22">
    <path d="M 46.067625 358.33775
L 497.697514 358.33775
" style="fill: none; stroke: #d4d4d8; stroke-linejoin: miter; stroke-linecap: square"/>
   </g>
  </g>
 </g>
 <defs>
  <clipPath id="pa6cc64c5ae">
   <rect x="46.067625" y="7.2" width="451.629889" height="351.13775"/>
  </clipPath>
 </defs>
</svg>
